#!OML:ASF X:\für Bonn\!DataBase\2005_08_12_Daniel\c3d\Daniel.ASF
:FULLY-SPECIFIED
:DEGREES
97
root 2.69882 17.6054 17.2835 -5.65696 15.7737 -1.23035
lowerback 6.93109 2.95878 4.34322
upperback -0.325473 4.11441 -5.41585
thorax -3.51993 1.93757 -8.55591
lowerneck 2.92424 -6.52623 -3.67329
upperneck 14.4738 -9.32893 5.1435
head 4.27232 -4.5435 1.88704
rclavicle 9.44227e-016 -3.18055e-015
rhumerus 65.7734 -17.741 -88.9432
rradius 8.494
rwrist 51.6363
rhand -3.31589 8.78232
rfingers 7.12502
rthumb 22.4108 -19.9376
lclavicle 9.44227e-016 -3.18055e-015
lhumerus -40.5553 47.7135 51.5234
lradius 14.9192
lwrist -51.3011
lhand -11.7644 -6.47107
lfingers 7.12502
lthumb 14.2841 23.0176
rfemur 11.7447 15.5337 23.1721
rtibia 12.0081
rfoot -24.8908 -26.4972
rtoes -12.5412
lfemur -1.55844 -18.8902 -17.5007
ltibia 29.5654
lfoot -22.4965 2.84694
ltoes -15.6374
98
root 2.69377 17.6062 17.2829 -5.64268 15.8606 -1.22953
lowerback 6.9634 3.00619 4.36705
upperback -0.308532 4.18043 -5.44098
thorax -3.50507 1.97143 -8.60366
lowerneck 2.89315 -6.58264 -3.70498
upperneck 14.4872 -9.41354 5.21601
head 4.29034 -4.58257 1.90921
rclavicle 5.52124e-014 -1.43125e-014
rhumerus 65.9806 -17.8405 -89.0802
rradius 8.29885
rwrist 51.888
rhand -2.81895 8.18823
rfingers 7.12502
rthumb 22.8877 -20.4735
lclavicle 5.52124e-014 -1.43125e-014
lhumerus -40.3035 47.5228 51.8496
lradius 14.9581
lwrist -50.9457
lhand -11.7177 -6.53683
lfingers 7.12502
lthumb 14.3291 22.9487
rfemur 11.7318 15.5137 23.1903
rtibia 12.0202
rfoot -24.9504 -26.5422
rtoes -12.4827
lfemur -1.6051 -18.9231 -17.4697
ltibia 29.5637
lfoot -22.4759 2.78583
ltoes -15.6397
99
root 2.68882 17.6072 17.2823 -5.62898 15.9623 -1.22985
lowerback 6.99554 3.03708 4.38427
upperback -0.289314 4.22399 -5.45812
thorax -3.4927 1.99412 -8.63708
lowerneck 2.87696 -6.62539 -3.75133
upperneck 14.4716 -9.47819 5.28545
head 4.29672 -4.61341 1.93452
rclavicle 2.48481e-016 2.38542e-014
rhumerus 66.1688 -17.9116 -89.2196
rradius 8.14228
rwrist 52.09
rhand -2.28473 7.58275
rfingers 7.12502
rthumb 23.4003 -21.0146
lclavicle 2.48481e-016 2.38542e-014
lhumerus -40.1315 47.4593 52.0665
lradius 14.9635
lwrist -50.7393
lhand -11.6817 -6.58433
lfingers 7.12502
lthumb 14.3637 22.8987
rfemur 11.7222 15.4669 23.2063
rtibia 12.0199
rfoot -24.9709 -26.5953
rtoes -12.4114
lfemur -1.66118 -18.9467 -17.4367
ltibia 29.5675
lfoot -22.4502 2.71665
ltoes -15.6855
100
root 2.68462 17.6075 17.282 -5.6159 16.041 -1.22794
lowerback 7.02792 3.08015 4.40585
upperback -0.278348 4.28395 -5.48131
thorax -3.48533 2.02451 -8.68134
lowerneck 2.89427 -6.67136 -3.76763
upperneck 14.4437 -9.54585 5.34321
head 4.29213 -4.64547 1.95288
rclavicle -4.86029e-014 2.06736e-014
rhumerus 66.3238 -18.0104 -89.3518
rradius 8.0008
rwrist 52.3475
rhand -1.7375 7.0264
rfingers 7.12502
rthumb 23.9251 -21.5031
lclavicle -4.86029e-014 2.06736e-014
lhumerus -39.895 47.2408 52.3824
lradius 14.9913
lwrist -50.3674
lhand -11.6617 -6.62157
lfingers 7.12502
lthumb 14.3829 22.8601
rfemur 11.7122 15.4161 23.2119
rtibia 12.0184
rfoot -24.9872 -26.6221
rtoes -12.4035
lfemur -1.69788 -19.0177 -17.4232
ltibia 29.5676
lfoot -22.4358 2.70368
ltoes -15.6853
101
root 2.68026 17.6078 17.2815 -5.61505 16.1443 -1.2401
lowerback 7.05449 3.10877 4.43904
upperback -0.250372 4.32582 -5.50282
thorax -3.45929 2.04696 -8.72776
lowerneck 2.88665 -6.71414 -3.79281
upperneck 14.4359 -9.61182 5.41815
head 4.2989 -4.67564 1.97665
rclavicle 2.52953e-014 -1.59028e-015
rhumerus 66.4681 -18.1041 -89.5
rradius 7.92014
rwrist 52.5226
rhand -1.18204 6.4897
rfingers 7.12502
rthumb 24.4577 -21.9689
lclavicle 2.52953e-014 -1.59028e-015
lhumerus -39.6995 47.1245 52.6283
lradius 15.0141
lwrist -50.1576
lhand -11.6396 -6.66158
lfingers 7.12502
lthumb 14.4043 22.8186
rfemur 11.7241 15.4049 23.249
rtibia 12.0074
rfoot -25.0534 -26.6903
rtoes -12.3307
lfemur -1.74059 -19.0507 -17.3862
ltibia 29.5728
lfoot -22.4022 2.65468
ltoes -15.6893
102
root 2.67494 17.6082 17.2811 -5.60787 16.2483 -1.23929
lowerback 7.09477 3.13708 4.44149
upperback -0.24011 4.36464 -5.52193
thorax -3.46247 2.0666 -8.75564
lowerneck 2.91271 -6.75087 -3.79461
upperneck 14.423 -9.66681 5.46789
head 4.29585 -4.701 1.99095
rclavicle 4.03533e-014 -2.54444e-014
rhumerus 66.5846 -18.1898 -89.639
rradius 7.84041
rwrist 52.7362
rhand -0.616644 5.97168
rfingers 7.12502
rthumb 24.9996 -22.4126
lclavicle 4.03533e-014 -2.54444e-014
lhumerus -39.512 46.9215 52.9025
lradius 15.0463
lwrist -49.8395
lhand -11.6377 -6.67509
lfingers 7.12502
lthumb 14.4061 22.805
rfemur 11.7301 15.368 23.2711
rtibia 11.9989
rfoot -25.0907 -26.753
rtoes -12.3107
lfemur -1.78453 -19.0947 -17.3575
ltibia 29.5731
lfoot -22.3804 2.58748
ltoes -15.6901
103
root 2.67003 17.6086 17.2807 -5.59576 16.3633 -1.23853
lowerback 7.11582 3.15726 4.44717
upperback -0.221378 4.39272 -5.53741
thorax -3.4479 2.08185 -8.77858
lowerneck 2.95238 -6.78352 -3.83948
upperneck 14.385 -9.71912 5.55023
head 4.28636 -4.72646 2.0229
rclavicle 7.8669e-014 -4.77083e-015
rhumerus 66.6856 -18.2721 -89.7743
rradius 7.79271
rwrist 52.9399
rhand -0.0588019 5.51494
rfingers 7.12502
rthumb 25.534 -22.7939
lclavicle 7.8669e-014 -4.77083e-015
lhumerus -39.3471 46.7928 53.1319
lradius 15.057
lwrist -49.6092
lhand -11.6389 -6.66817
lfingers 7.12502
lthumb 14.405 22.812
rfemur 11.7339 15.3132 23.2869
rtibia 11.9839
rfoot -25.1224 -26.8095
rtoes -12.2924
lfemur -1.84052 -19.1222 -17.326
ltibia 29.577
lfoot -22.354 2.51007
ltoes -15.7374
104
root 2.66509 17.6092 17.2798 -5.58296 16.4971 -1.24033
lowerback 7.13092 3.17168 4.47683
upperback -0.19664 4.41467 -5.57166
thorax -3.42152 2.09433 -8.83463
lowerneck 2.97896 -6.81749 -3.83734
upperneck 14.3576 -9.77259 5.623
head 4.27965 -4.75015 2.04385
rclavicle -6.27166e-014 3.49861e-014
rhumerus 66.7879 -18.3672 -89.9402
rradius 7.75225
rwrist 53.1447
rhand 0.432216 5.09727
rfingers 7.12502
rthumb 26.0043 -23.1433
lclavicle -6.27166e-014 3.49861e-014
lhumerus -39.1565 46.6661 53.3466
lradius 15.0638
lwrist -49.4366
lhand -11.6333 -6.6837
lfingers 7.12502
lthumb 14.4103 22.796
rfemur 11.7371 15.3208 23.3271
rtibia 11.9776
rfoot -25.1998 -26.935
rtoes -12.3071
lfemur -1.89937 -19.2075 -17.2983
ltibia 29.5784
lfoot -22.326 2.45498
ltoes -15.7373
105
root 2.65998 17.6096 17.2793 -5.5696 16.6175 -1.2408
lowerback 7.14471 3.18477 4.488
upperback -0.174471 4.43368 -5.58618
thorax -3.40052 2.10535 -8.85826
lowerneck 3.04109 -6.8416 -3.89707
upperneck 14.3104 -9.81307 5.70574
head 4.2639 -4.77112 2.07978
rclavicle 3.66758e-014 7.95139e-015
rhumerus 66.8797 -18.4461 -90.0766
rradius 7.70711
rwrist 53.3619
rhand 0.847442 4.73155
rfingers 7.12502
rthumb 26.4018 -23.45
lclavicle 3.66758e-014 7.95139e-015
lhumerus -39.0545 46.6176 53.4974
lradius 15.0826
lwrist -49.2846
lhand -11.5857 -6.66094
lfingers 7.12502
lthumb 14.4562 22.8155
rfemur 11.7447 15.3223 23.3609
rtibia 11.9685
rfoot -25.2881 -27.0261
rtoes -12.224
lfemur -1.96076 -19.2396 -17.2641
ltibia 29.584
lfoot -22.2987 2.37626
ltoes -15.7845
106
root 2.65563 17.6102 17.278 -5.55654 16.7225 -1.23987
lowerback 7.17261 3.20503 4.50573
upperback -0.162858 4.46274 -5.60846
thorax -3.39555 2.12027 -8.8967
lowerneck 3.11177 -6.87539 -3.89029
upperneck 14.279 -9.86272 5.74722
head 4.24699 -4.79498 2.09252
rclavicle 6.85062e-014 -1.90833e-014
rhumerus 66.9447 -18.5469 -90.2129
rradius 7.65499
rwrist 53.567
rhand 1.19115 4.42755
rfingers 7.12502
rthumb 26.7308 -23.7042
lclavicle 6.85062e-014 -1.90833e-014
lhumerus -38.8564 46.3849 53.7821
lradius 15.1139
lwrist -48.9884
lhand -11.5641 -6.61025
lfingers 7.12502
lthumb 14.4771 22.8647
rfemur 11.7287 15.2541 23.3649
rtibia 11.9742
rfoot -25.3011 -27.0604
rtoes -12.1579
lfemur -2.0138 -19.2876 -17.2377
ltibia 29.5823
lfoot -22.2711 2.31407
ltoes -15.7844
107
root 2.65074 17.6108 17.2753 -5.55407 16.8137 -1.25282
lowerback 7.23246 3.22187 4.54543
upperback -0.155856 4.48973 -5.62781
thorax -3.41226 2.13267 -8.9476
lowerneck 3.18555 -6.89728 -3.91957
upperneck 14.2317 -9.89916 5.81925
head 4.2272 -4.81319 2.12109
rclavicle -6.15487e-014 3.49861e-014
rhumerus 66.9965 -18.6459 -90.3504
rradius 7.60377
rwrist 53.7635
rhand 1.42444 4.12893
rfingers 7.12502
rthumb 26.954 -23.9686
lclavicle -6.15487e-014 3.49861e-014
lhumerus -38.7101 46.2178 53.9911
lradius 15.132
lwrist -48.7162
lhand -11.546 -6.59725
lfingers 7.12502
lthumb 14.4944 22.8765
rfemur 11.7152 15.2429 23.4022
rtibia 11.9875
rfoot -25.3472 -27.1333
rtoes -12.1234
lfemur -2.06446 -19.3083 -17.1951
ltibia 29.582
lfoot -22.2505 2.25115
ltoes -15.8277
108
root 2.64729 17.612 17.2717 -5.5444 16.8816 -1.23941
lowerback 7.2808 3.24156 4.58094
upperback -0.138532 4.51976 -5.6645
thorax -3.40995 2.14784 -9.0137
lowerneck 3.22935 -6.92335 -3.91428
upperneck 14.2167 -9.93945 5.86644
head 4.21959 -4.83158 2.13491
rclavicle 2.60656e-014 -3.18055e-014
rhumerus 67.0644 -18.7375 -90.5144
rradius 7.53331
rwrist 53.9875
rhand 1.55775 3.83602
rfingers 7.12502
rthumb 27.0816 -24.2417
lclavicle 2.60656e-014 -3.18055e-014
lhumerus -38.6014 46.192 54.0965
lradius 15.1357
lwrist -48.5879
lhand -11.5177 -6.57332
lfingers 7.12502
lthumb 14.5217 22.8984
rfemur 11.6794 15.1762 23.3743
rtibia 12.0125
rfoot -25.3619 -27.1162
rtoes -12.0826
lfemur -2.09847 -19.3795 -17.2008
ltibia 29.5754
lfoot -22.2233 2.26355
ltoes -15.7955
